<svg width="32" height="32" viewBox="0 0 32 32" fill="none" xmlns="http://www.w3.org/2000/svg">
<g clip-path="url(#clip0_11_294)">
<path d="M4.68783 27.3121C3.15967 25.8361 1.94076 24.0706 1.10221 22.1186C0.263667 20.1665 -0.177712 18.067 -0.196173 15.9425C-0.214634 13.818 0.190193 11.7112 0.994687 9.74481C1.79918 7.77847 2.98723 5.99204 4.48951 4.48976C5.9918 2.98748 7.77823 1.79943 9.74457 0.994931C11.7109 0.190437 13.8178 -0.21439 15.9423 -0.195929C18.0667 -0.177468 20.1662 0.263912 22.1183 1.10246C24.0704 1.941 25.8359 3.15992 27.3118 4.68808C30.2264 7.70571 31.8391 11.7473 31.8026 15.9425C31.7662 20.1376 30.0835 24.1506 27.1169 27.1172C24.1504 30.0837 20.1374 31.7664 15.9423 31.8029C11.7471 31.8393 7.70547 30.2266 4.68783 27.3121ZM18.2398 16.0001L22.7678 11.4721L20.5118 9.21608L15.9998 13.7441L11.4718 9.21608L9.21583 11.4721L13.7438 16.0001L9.21583 20.5281L11.4718 22.7841L15.9998 18.2561L20.5278 22.7841L22.7838 20.5281L18.2558 16.0001H18.2398Z" fill="#F8F8F8"/>
</g>
<defs>
<clipPath id="clip0_11_294">
<rect width="32" height="32" fill="white"/>
</clipPath>
</defs>
</svg>
