<svg width="64" height="64" viewBox="0 0 64 64" fill="none" xmlns="http://www.w3.org/2000/svg">
<rect width="64" height="64" rx="12" fill="#0B0044"/>
<g clip-path="url(#clip0_11_203)">
<path fill-rule="evenodd" clip-rule="evenodd" d="M33.1508 11.5023C32.9465 11.4094 32.7247 11.3613 32.5002 11.3613C32.2758 11.3613 32.054 11.4094 31.8497 11.5023L23.6059 15.2549L32.4939 19.3029L41.3882 15.2518L33.1508 11.5023ZM22.1288 27.6315V18.0332L30.9288 22.0403V32.6475L23.0434 29.0615C22.7688 28.9366 22.536 28.7354 22.3728 28.4818C22.2095 28.2283 22.1226 27.9331 22.1225 27.6315H22.1288ZM34.0717 48.7263V38.2292L42.4065 42.0257V52.6329L34.5305 49.0469C34.3585 48.9687 34.2051 48.8601 34.0717 48.7263ZM45.5494 52.6392V42.0257L54.3588 38.0155V47.6169C54.3587 47.9185 54.2719 48.2137 54.1086 48.4672C53.9453 48.7208 53.7125 48.922 53.4379 49.0469L45.5494 52.6392ZM30.9225 38.2292V48.7389C30.7918 48.8669 30.6397 48.9712 30.4731 49.0469L22.5845 52.6392V42.0257L30.9225 38.2292ZM19.4417 42.0257V52.6329L11.5688 49.0469C11.2943 48.922 11.0615 48.7208 10.8982 48.4672C10.7349 48.2137 10.648 47.9185 10.6479 47.6169V38.0186L19.4479 42.0257H19.4417ZM34.0654 32.6538V22.0372L42.8748 18.0269V27.6315C42.8747 27.9331 42.7879 28.2283 42.6246 28.4818C42.4613 28.7354 42.2285 28.9366 41.954 29.0615L34.0654 32.6538ZM43.3305 31.4909C43.5348 31.398 43.7567 31.3499 43.9811 31.3499C44.2055 31.3499 44.4274 31.398 44.6317 31.4909L52.8659 35.2372L43.9717 39.2883L35.0931 35.2372L43.3337 31.4846L43.3305 31.4909ZM20.3688 31.4909C20.5731 31.398 20.7949 31.3499 21.0194 31.3499C21.2438 31.3499 21.4656 31.398 21.6699 31.4909L29.9042 35.2372L21.0131 39.2915L12.1282 35.2372L20.3688 31.4909Z" fill="#FFB217"/>
</g>
<defs>
<clipPath id="clip0_11_203">
<rect width="44" height="44" fill="white" transform="translate(10.5 10)"/>
</clipPath>
</defs>
</svg>
