<svg width="64" height="64" viewBox="0 0 64 64" fill="none" xmlns="http://www.w3.org/2000/svg">
<rect width="64" height="64" rx="12" fill="#0B0044"/>
<g clip-path="url(#clip0_11_64)">
<path fill-rule="evenodd" clip-rule="evenodd" d="M14.7646 29.9886C14.7356 27.9711 15.108 25.968 15.8599 24.0957C16.6119 22.2235 17.7286 20.5193 19.145 19.0824C20.5614 17.6455 22.2493 16.5045 24.1106 15.7257C25.9719 14.9469 27.9694 14.5458 29.987 14.5458C32.0047 14.5458 34.0022 14.9469 35.8635 15.7257C37.7248 16.5045 39.4127 17.6455 40.8291 19.0824C42.2455 20.5193 43.3622 22.2235 44.1142 24.0957C44.8661 25.968 45.2385 27.9711 45.2095 29.9886C45.152 33.9879 43.5229 37.804 40.6744 40.6119C37.8259 43.4197 33.9868 44.9938 29.987 44.9938C25.9873 44.9938 22.1482 43.4197 19.2997 40.6119C16.4512 37.804 14.8221 33.9879 14.7646 29.9886ZM29.9855 10.0471C26.8397 10.0466 23.7384 10.7905 20.9352 12.218C18.1319 13.6454 15.7062 15.7159 13.8562 18.2603C12.0063 20.8046 10.7846 23.7506 10.2911 26.8574C9.79756 29.9642 10.0462 33.1437 11.0166 36.1361C11.987 39.1285 13.6517 41.8487 15.8747 44.0746C18.0976 46.3005 20.8157 47.9688 23.8068 48.9431C26.7978 49.9175 29.977 50.1703 33.0845 49.6809C36.192 49.1915 39.1396 47.9737 41.6863 46.1271L48.5849 53.0257C49.1742 53.6154 49.9737 53.9469 50.8074 53.9472C51.6411 53.9475 52.4407 53.6166 53.0305 53.0273C53.6202 52.438 53.9517 51.6385 53.952 50.8048C53.9523 49.9711 53.6214 49.1714 53.032 48.5817L46.1303 41.6831C48.2852 38.7076 49.576 35.1945 49.8604 31.5316C50.1447 27.8687 49.4115 24.1985 47.7416 20.9261C46.0717 17.6536 43.5301 14.9062 40.3974 12.987C37.2646 11.0678 33.6625 10.0515 29.9886 10.0503L29.9855 10.0471ZM27.644 22.7003C27.8265 22.8827 27.9712 23.0992 28.07 23.3376C28.1687 23.5759 28.2196 23.8314 28.2196 24.0894C28.2196 24.3474 28.1687 24.6029 28.07 24.8412C27.9712 25.0796 27.8265 25.2961 27.644 25.4785L22.7475 30.3783L27.644 35.2748C28.0125 35.6433 28.2195 36.1429 28.2195 36.664C28.2195 37.185 28.0125 37.6847 27.644 38.0531C27.2756 38.4215 26.7759 38.6285 26.2549 38.6285C25.7339 38.6285 25.2342 38.4215 24.8658 38.0531L18.58 31.7674C18.3976 31.585 18.2529 31.3684 18.1541 31.1301C18.0554 30.8917 18.0045 30.6363 18.0045 30.3783C18.0045 30.1203 18.0554 29.8648 18.1541 29.6264C18.2529 29.3881 18.3976 29.1715 18.58 28.9891L24.8658 22.7034C25.0482 22.5209 25.2647 22.3762 25.5031 22.2775C25.7414 22.1787 25.9969 22.1279 26.2549 22.1279C26.5129 22.1279 26.7684 22.1787 27.0067 22.2775C27.2451 22.3762 27.4616 22.5178 27.644 22.7003ZM35.5012 22.7003C35.1328 22.3318 34.6331 22.1249 34.112 22.1249C33.591 22.1249 33.0913 22.3318 32.7229 22.7003C32.3545 23.0687 32.1475 23.5684 32.1475 24.0894C32.1475 24.6104 32.3545 25.1101 32.7229 25.4785L37.6195 30.3751L32.7229 35.2748C32.3545 35.6433 32.1475 36.1429 32.1475 36.664C32.1475 37.185 32.3545 37.6847 32.7229 38.0531C33.0913 38.4215 33.591 38.6285 34.112 38.6285C34.6331 38.6285 35.1328 38.4215 35.5012 38.0531L41.7869 31.7674C41.9694 31.585 42.1141 31.3684 42.2128 31.1301C42.3116 30.8917 42.3624 30.6363 42.3624 30.3783C42.3624 30.1203 42.3116 29.8648 42.2128 29.6264C42.1141 29.3881 41.9694 29.1715 41.7869 28.9891L35.5012 22.7003Z" fill="#FFB217"/>
</g>
<defs>
<clipPath id="clip0_11_64">
<rect width="44" height="44" fill="white" transform="translate(10 10)"/>
</clipPath>
</defs>
</svg>
