<svg width="65" height="64" viewBox="0 0 65 64" fill="none" xmlns="http://www.w3.org/2000/svg">
<rect x="0.5" width="64" height="64" rx="12" fill="#0B0044"/>
<path d="M32.4999 29.5311C35.713 29.5311 38.3177 26.9592 38.3177 23.7867C38.3177 20.6141 35.713 18.0422 32.4999 18.0422C29.2868 18.0422 26.6821 20.6141 26.6821 23.7867C26.6821 26.9592 29.2868 29.5311 32.4999 29.5311Z" fill="#FFB217"/>
<path d="M23.6755 24.3611H24.2621V23.8355C24.2657 22.3072 24.6969 20.8105 25.5068 19.5145C26.3168 18.2185 27.4733 17.1751 28.8455 16.5022C28.4392 15.5666 27.7872 14.7586 26.9586 14.1639C26.1301 13.5691 25.1559 13.2099 24.1396 13.1244C23.1232 13.0389 22.1027 13.2302 21.1864 13.6781C20.2701 14.1259 19.4921 14.8136 18.9353 15.6681C18.3784 16.5226 18.0634 17.512 18.0236 18.5311C17.9839 19.5503 18.2209 20.5612 18.7095 21.4564C19.1982 22.3517 19.9202 23.0979 20.7988 23.6157C21.6775 24.1336 22.68 24.4039 23.6999 24.3977L23.6755 24.3611ZM40.7621 23.7866V24.3122H41.3488C42.3551 24.3021 43.3401 24.0209 44.2001 23.4982C45.0601 22.9755 45.7632 22.2306 46.2356 21.3419C46.7079 20.4533 46.9319 19.4537 46.8841 18.4485C46.8362 17.4433 46.5183 16.4695 45.9636 15.6298C45.409 14.79 44.6383 14.1153 43.7326 13.6766C42.8268 13.238 41.8196 13.0516 40.8168 13.1372C39.8141 13.2227 38.853 13.577 38.0346 14.1627C37.2163 14.7484 36.5709 15.5439 36.1666 16.4655C37.5392 17.1358 38.6969 18.1766 39.509 19.4703C40.3211 20.764 40.7552 22.2591 40.7621 23.7866ZM37.7432 30.1055C40.1731 30.5873 42.5227 31.4103 44.7221 32.5499C45.0321 32.72 45.3127 32.9387 45.5532 33.1977H52.0555V29.0177C52.0567 28.8574 52.014 28.6998 51.9322 28.5619C51.8503 28.4241 51.7324 28.3112 51.591 28.2355C48.4232 26.5786 44.8993 25.7186 41.3244 25.7299H40.5177C40.0941 27.4517 39.1199 28.9881 37.7432 30.1055ZM18.481 35.5688C18.4788 34.9533 18.645 34.3489 18.9617 33.821C19.2784 33.2932 19.7335 32.8621 20.2777 32.5744C22.4771 31.4347 24.8267 30.6117 27.2566 30.1299C25.8866 29.022 24.913 27.4995 24.4821 25.7911H23.6755C20.1005 25.7797 16.5766 26.6397 13.4088 28.2966C13.2675 28.3723 13.1495 28.4852 13.0677 28.6231C12.9858 28.7609 12.9432 28.9185 12.9444 29.0788V36.8888H18.481V35.5688ZM36.7288 42.6211H44.0132V44.3322H36.7288V42.6211Z" fill="#FFB217"/>
<path d="M50.6009 35.9844H42.2042V34.7621C42.2042 34.438 42.0754 34.1271 41.8462 33.8979C41.617 33.6687 41.3061 33.5399 40.982 33.5399C40.6578 33.5399 40.347 33.6687 40.1177 33.8979C39.8885 34.1271 39.7598 34.438 39.7598 34.7621V35.9844H37.3886V32.5255C35.7808 32.1864 34.1429 32.0103 32.4998 31.9999C28.6423 31.9854 24.8402 32.917 21.4264 34.7133C21.2744 34.7921 21.1471 34.9115 21.0587 35.0582C20.9703 35.2048 20.9241 35.3731 20.9253 35.5444V42.401H29.6153V49.8444C29.6153 50.1685 29.7441 50.4794 29.9733 50.7086C30.2025 50.9378 30.5134 51.0666 30.8375 51.0666H50.6009C50.925 51.0666 51.2359 50.9378 51.4651 50.7086C51.6943 50.4794 51.8231 50.1685 51.8231 49.8444V37.2066C51.8231 36.8824 51.6943 36.5716 51.4651 36.3423C51.2359 36.1131 50.925 35.9844 50.6009 35.9844ZM49.3786 48.6466H32.0598V38.4288H39.7598V39.541C39.7598 39.8652 39.8885 40.1761 40.1177 40.4053C40.347 40.6345 40.6578 40.7633 40.982 40.7633C41.3061 40.7633 41.617 40.6345 41.8462 40.4053C42.0754 40.1761 42.2042 39.8652 42.2042 39.541V38.4288H49.3786V48.6466Z" fill="#FFB217"/>
</svg>
