<svg width="64" height="64" viewBox="0 0 64 64" fill="none" xmlns="http://www.w3.org/2000/svg">
<rect width="64" height="64" rx="12" fill="#0B0044"/>
<g clip-path="url(#clip0_11_71)">
<path d="M36.2075 19.13L44.8682 27.7925C45.3756 28.2999 45.7231 28.945 45.8675 29.6479C46.0118 30.3508 45.9468 31.0807 45.6803 31.747L41.3445 42.5875C41.1012 43.1943 40.7001 43.7251 40.1828 44.1248C39.6654 44.5245 39.0506 44.7786 38.402 44.8608L29.0905 46.025C28.8509 46.0531 28.6004 46.0873 28.3388 46.1277L27.5248 46.2597L27.0995 46.3367L25.774 46.5933L24.8665 46.7858L23.5007 47.0938L21.7498 47.5118L18.9045 48.2378L17.7202 48.5568C17.4213 48.639 17.1065 48.6448 16.8048 48.5738C16.5031 48.5028 16.2241 48.3571 15.9932 48.1502C15.7624 47.9433 15.5873 47.6817 15.4838 47.3896C15.3803 47.0974 15.3518 46.7839 15.401 46.4778L15.4633 46.2102L16.0042 44.1715L16.4882 42.2502L16.9062 40.4993L17.2123 39.1335L17.4048 38.2242L17.6633 36.9005L17.81 36.0627L17.9273 35.278L19.1373 25.598C19.2197 24.9492 19.4741 24.3342 19.8741 23.8168C20.2741 23.2995 20.8053 22.8985 21.4125 22.6555L32.253 18.3197C32.9193 18.0532 33.6491 17.9881 34.3521 18.1325C35.055 18.2769 35.7001 18.6225 36.2075 19.13ZM29.4058 29.4058C28.9426 29.8693 28.6121 30.4484 28.4487 31.083C28.2852 31.7175 28.2947 32.3842 28.4763 33.0138C28.3427 33.0921 28.2195 33.1869 28.1097 33.2962L20.67 40.7358C20.6212 40.7853 20.5875 40.8476 20.5728 40.9155L20.4097 41.6213L20.0833 42.9835L19.9257 43.627C19.9095 43.6889 19.9098 43.7539 19.9266 43.8156C19.9434 43.8773 19.976 43.9336 20.0212 43.9788C20.0664 44.024 20.1227 44.0566 20.1844 44.0734C20.2461 44.0901 20.3111 44.0905 20.373 44.0743L21.6875 43.7535L23.0863 43.4272C23.1538 43.4116 23.2154 43.3773 23.2642 43.3282L30.7038 35.8885C30.8129 35.7793 30.9078 35.6567 30.9862 35.5237C31.6074 35.7022 32.2648 35.7134 32.8917 35.5561C33.5187 35.3988 34.0929 35.0785 34.5561 34.6277C35.0194 34.177 35.3553 33.6118 35.5298 32.9894C35.7043 32.367 35.7111 31.7095 35.5496 31.0837C35.3881 30.4578 35.064 29.8857 34.6102 29.4254C34.1564 28.9651 33.589 28.633 32.9655 28.4627C32.3419 28.2923 31.6844 28.2898 31.0596 28.4555C30.4348 28.6211 29.8649 28.949 29.4077 29.4058H29.4058ZM37.9455 15.6852C38.2609 15.3692 38.6808 15.1793 39.1264 15.1509C39.5719 15.1226 40.0125 15.2578 40.3655 15.5312L40.5378 15.6852L48.3167 23.4622C48.649 23.7913 48.8429 24.235 48.8587 24.7025C48.8746 25.17 48.7112 25.6258 48.402 25.9767C48.0927 26.3277 47.6611 26.5471 47.1953 26.5902C46.7296 26.6333 46.265 26.4967 45.8967 26.2085L45.7225 26.0545L37.9455 18.2775C37.6018 17.9337 37.4087 17.4675 37.4087 16.9813C37.4087 16.4952 37.6018 16.029 37.9455 15.6852Z" fill="#FFB217"/>
</g>
<defs>
<clipPath id="clip0_11_71">
<rect width="44" height="44" fill="white" transform="translate(10 10)"/>
</clipPath>
</defs>
</svg>
