<svg width="64" height="64" viewBox="0 0 64 64" fill="none" xmlns="http://www.w3.org/2000/svg">
<rect width="64" height="64" rx="12" fill="#0B0044"/>
<path d="M19.1668 29.6626L14.5834 27.0501C14.3084 26.8973 14.0866 26.6755 13.9179 26.3846C13.7493 26.0937 13.6655 25.7814 13.6668 25.4477V20.2227C13.6668 19.8866 13.7511 19.5731 13.9198 19.2822C14.0884 18.9914 14.3097 18.7695 14.5834 18.6167L19.1668 16.0042C19.4418 15.8515 19.7473 15.7751 20.0834 15.7751C20.4195 15.7751 20.7251 15.8515 21.0001 16.0042L25.5834 18.6167C25.8584 18.7695 26.0803 18.9914 26.2489 19.2822C26.4176 19.5731 26.5013 19.886 26.5001 20.2209V25.4459C26.5001 25.782 26.4164 26.0955 26.2489 26.3864C26.0815 26.6773 25.8596 26.8985 25.5834 27.0501L21.0001 29.6626C20.7251 29.8154 20.4195 29.8917 20.0834 29.8917C19.7473 29.8917 19.4418 29.8154 19.1668 29.6626ZM40.2501 33.8334V27.3251L44.8334 30.0292C45.414 30.3654 45.865 30.8084 46.1864 31.3584C46.5079 31.9084 46.668 32.5195 46.6668 33.1917V41.8084C46.6668 42.4806 46.5067 43.0917 46.1864 43.6417C45.8662 44.1917 45.4152 44.6348 44.8334 44.9709L37.5001 49.2334C36.9195 49.5695 36.3084 49.7376 35.6668 49.7376C35.0251 49.7376 34.414 49.5695 33.8334 49.2334L26.5001 44.9709C25.9195 44.6348 25.4691 44.1917 25.1489 43.6417C24.8287 43.0917 24.668 42.4806 24.6668 41.8084V33.1917C24.6668 32.5195 24.8275 31.9084 25.1489 31.3584C25.4704 30.8084 25.9208 30.3654 26.5001 30.0292L31.0834 27.3251V33.8334C31.0834 35.1167 31.5265 36.2015 32.4126 37.0876C33.2987 37.9737 34.3834 38.4167 35.6668 38.4167C36.9501 38.4167 38.0348 37.9737 38.9209 37.0876C39.807 36.2015 40.2501 35.1167 40.2501 33.8334ZM37.5001 24.6667V33.8334C37.5001 34.3529 37.3241 34.7886 36.9721 35.1406C36.6201 35.4926 36.185 35.668 35.6668 35.6667C35.1485 35.6655 34.7134 35.4895 34.3614 35.1387C34.0094 34.788 33.8334 34.3529 33.8334 33.8334V15.5001C33.8334 14.9806 34.0094 14.5455 34.3614 14.1947C34.7134 13.844 35.1485 13.668 35.6668 13.6667H46.8959C47.6293 13.6667 48.1793 13.9876 48.5459 14.6292C48.9126 15.2709 48.882 15.8973 48.4543 16.5084L47.3543 18.1584C47.1404 18.464 47.0334 18.8001 47.0334 19.1667C47.0334 19.5334 47.1404 19.8695 47.3543 20.1751L48.4543 21.8251C48.882 22.4362 48.9126 23.0626 48.5459 23.7042C48.1793 24.3459 47.6293 24.6667 46.8959 24.6667H37.5001Z" fill="#FFB217"/>
</svg>
