<svg width="64" height="64" viewBox="0 0 64 64" fill="none" xmlns="http://www.w3.org/2000/svg">
<rect width="64" height="64" rx="12" fill="#0B0044"/>
<path d="M16 47.125C16 46.7603 16.1449 46.4106 16.4027 46.1527C16.6606 45.8949 17.0103 45.75 17.375 45.75L47.625 45.75C47.9897 45.75 48.3394 45.8949 48.5973 46.1527C48.8551 46.4106 49 46.7603 49 47.125C49 47.4897 48.8551 47.8394 48.5973 48.0973C48.3394 48.3551 47.9897 48.5 47.625 48.5L17.375 48.5C17.0103 48.5 16.6606 48.3551 16.4027 48.0973C16.1449 47.8394 16 47.4897 16 47.125ZM21.5 43L28.375 43C29.1043 43 29.8038 42.7103 30.3195 42.1945C30.8353 41.6788 31.125 40.9793 31.125 40.25L31.125 23.75C31.125 23.0207 30.8353 22.3212 30.3195 21.8055C29.8038 21.2897 29.1043 21 28.375 21L21.5 21C20.7707 21 20.0712 21.2897 19.5555 21.8055C19.0397 22.3212 18.75 23.0207 18.75 23.75L18.75 40.25C18.75 40.9793 19.0397 41.6788 19.5555 42.1945C20.0712 42.7103 20.7707 43 21.5 43ZM36.625 43L43.5 43C44.2293 43 44.9288 42.7103 45.4445 42.1945C45.9603 41.6788 46.25 40.9793 46.25 40.25L46.25 16.875C46.25 16.1457 45.9603 15.4462 45.4445 14.9305C44.9288 14.4147 44.2293 14.125 43.5 14.125L36.625 14.125C35.8957 14.125 35.1962 14.4147 34.6805 14.9305C34.1647 15.4462 33.875 16.1457 33.875 16.875L33.875 40.25C33.875 40.9793 34.1647 41.6788 34.6805 42.1945C35.1962 42.7103 35.8957 43 36.625 43Z" fill="#FFB217"/>
</svg>
