<svg width="65" height="64" viewBox="0 0 65 64" fill="none" xmlns="http://www.w3.org/2000/svg">
<rect x="0.5" width="64" height="64" rx="12" fill="#0B0044"/>
<path d="M37.5415 40.2499H40.2915V37.4999H41.6665C42.1859 37.4999 42.6217 37.3239 42.9737 36.9719C43.3257 36.6199 43.5011 36.1848 43.4998 35.6666V28.3333C43.4998 27.8138 43.3238 27.3787 42.9718 27.0279C42.6198 26.6771 42.1847 26.5011 41.6665 26.4999H36.1665C35.6471 26.4999 35.2119 26.6759 34.8612 27.0279C34.5104 27.3799 34.3344 27.815 34.3332 28.3333V35.6666C34.3332 36.186 34.5092 36.6218 34.8612 36.9738C35.2132 37.3258 35.6483 37.5011 36.1665 37.4999H37.5415V40.2499ZM21.4998 37.4999H24.2498V33.8333H27.9165V37.4999H30.6665V26.4999H27.9165V31.0833H24.2498V26.4999H21.4998V37.4999ZM37.0832 34.7499V29.2499H40.7498V34.7499H37.0832ZM17.8332 46.6666C16.8248 46.6666 15.9619 46.3079 15.2445 45.5904C14.5271 44.873 14.1677 44.0095 14.1665 42.9999V20.9999C14.1665 19.9916 14.5258 19.1287 15.2445 18.4113C15.9632 17.6938 16.8261 17.3345 17.8332 17.3333H47.1665C48.1748 17.3333 49.0383 17.6926 49.757 18.4113C50.4757 19.1299 50.8344 19.9928 50.8332 20.9999V42.9999C50.8332 44.0083 50.4744 44.8718 49.757 45.5904C49.0396 46.3091 48.1761 46.6678 47.1665 46.6666H17.8332Z" fill="#FFB217"/>
</svg>
