<svg width="152" height="42" viewBox="0 0 152 42" fill="none" xmlns="http://www.w3.org/2000/svg">
<path d="M7.92419 25.1037V20.8799H17.2428V28.7979C17.2428 29.3231 17.1428 29.7911 16.9484 30.204C16.7484 30.6125 16.4917 30.9616 16.1795 31.2456C15.8628 31.5286 15.5151 31.74 15.1428 31.8733C14.7695 32.0109 14.3918 32.0792 14.0184 32.0792H3.2199C2.82991 32.0792 2.43881 32.0197 2.05216 31.8909C1.66662 31.761 1.32329 31.5683 1.01997 31.3051C0.711089 31.0386 0.46443 30.7028 0.277769 30.2943C0.0911083 29.8814 0 29.3826 0 28.7979V17.0734C0 16.4876 0.0911083 15.9888 0.277769 15.5759C0.46443 15.1674 0.711089 14.8316 1.01997 14.5651C1.32329 14.303 1.66662 14.1092 2.05216 13.9804C2.43881 13.856 2.82991 13.791 3.2199 13.791H17.2428V18.0104H4.16654V27.8598H13.0418V25.107H7.92419V25.1037Z" fill="#0B0044"/>
<path d="M21.9739 13.7866H26.1749V32.0792H21.9739V13.7866Z" fill="#0B0044"/>
<path d="M38.8356 25.1037V20.8799H48.1542V28.7979C48.1542 29.3231 48.0542 29.7911 47.8586 30.204C47.6586 30.6125 47.4031 30.9616 47.0898 31.2456C46.7731 31.5286 46.4265 31.74 46.0531 31.8733C45.6798 32.0109 45.3021 32.0792 44.9287 32.0792H34.1302C33.7402 32.0792 33.3491 32.0197 32.9635 31.8909C32.5769 31.761 32.2336 31.5683 31.9302 31.3051C31.6225 31.0386 31.3747 30.7028 31.188 30.2943C31.0014 29.8814 30.9103 29.3826 30.9103 28.7979V17.0734C30.9103 16.4876 31.0014 15.9888 31.188 15.5759C31.3747 15.1674 31.6225 14.8316 31.9302 14.5651C32.2336 14.303 32.5769 14.1092 32.9635 13.9804C33.3491 13.856 33.7402 13.791 34.1302 13.791H48.1542V18.0104H35.0768V27.8598H43.9521V25.107H38.8356V25.1037Z" fill="#0B0044"/>
<path d="M55.5795 25.0432C55.2406 25.0432 54.9117 24.987 54.5862 24.867C54.2606 24.7503 53.9696 24.5565 53.7129 24.2812C53.4574 24.0059 53.2529 23.658 53.1062 23.2274C52.9585 22.798 52.884 22.2607 52.884 21.6154V16.3973C52.884 16.1221 52.954 15.8347 53.0929 15.533C53.2318 15.228 53.4051 14.9439 53.6095 14.6818C53.8173 14.4186 54.0473 14.2039 54.3084 14.0366C54.5595 13.8725 54.7984 13.7866 55.0151 13.7866H70.1013V18.0104H57.4417L57.055 18.2428V20.5011L57.3806 20.8237H67.4414C67.7758 20.8237 68.1013 20.8843 68.418 20.9999C68.7302 21.1155 69.0169 21.3137 69.2724 21.5846C69.5291 21.8599 69.7324 22.2133 69.8802 22.6384C70.0279 23.0733 70.1013 23.6062 70.1013 24.2515V29.4993C70.1013 29.7746 70.0368 30.062 69.9113 30.3637C69.7802 30.6687 69.6113 30.9484 69.4069 31.2027C69.1991 31.456 68.978 31.6674 68.7391 31.8303C68.5047 31.9977 68.2658 32.0792 68.0313 32.0792H52.884V27.8565H65.5447L65.9003 27.5074V25.3658L65.6058 25.0432H55.5795Z" fill="#0B0044"/>
<path d="M74.8322 13.7866H79.0331V32.0792H74.8322V13.7866Z" fill="#0B0044"/>
<path d="M83.7687 21.4084H87.9964V27.8003H96.425L96.8106 27.4171V18.3287L96.425 17.9807H83.7643V13.7866H98.9116C99.146 13.7866 99.3849 13.8725 99.6193 14.0366C99.8582 14.2039 100.079 14.4153 100.287 14.6686C100.492 14.9218 100.66 15.2015 100.79 15.5032C100.917 15.8082 100.982 16.0967 100.982 16.3676V28.592C100.982 29.2196 100.908 29.7526 100.76 30.204C100.613 30.6566 100.414 31.0133 100.17 31.2886C99.9227 31.5639 99.636 31.761 99.3105 31.8909C98.986 32.0153 98.656 32.0792 98.3216 32.0792H83.7643V21.4084H83.7687Z" fill="#0B0044"/>
<path d="M105.712 32.0792V13.7866H121.064V18.0104H109.883V20.8799H115.769V25.1037H109.883V27.8565H121.064V32.0792H105.712Z" fill="#0B0044"/>
<path d="M137.747 21.4084C137.986 21.3314 138.104 21.2146 138.104 21.0561V18.3595C138.064 18.2813 138.016 18.213 137.956 18.1569C137.895 18.0963 137.838 18.0446 137.778 18.006H125.798V13.7866H140.381C140.599 13.7866 140.829 13.8681 141.076 14.0366C141.324 14.1995 141.549 14.4109 141.758 14.6686C141.966 14.9218 142.135 15.1971 142.274 15.5032C142.412 15.8038 142.482 16.0923 142.482 16.3676V22.1693C142.482 22.798 142.369 23.3353 142.144 23.7824C141.914 24.2349 141.615 24.6005 141.241 24.8835C140.864 25.1676 140.447 25.3746 139.982 25.499C139.522 25.6278 139.049 25.6884 138.58 25.6884L143.992 32.0792H138.403L132.604 25.6884H130.001V32.0792H125.798V21.4084H137.747Z" fill="#0B0044"/>
<path d="M90.0797 5.65725V3.57617H10.5466V8.34614H12.6466V5.65725H90.0797Z" fill="#0B0044"/>
<path d="M137.917 5.65725H149.9V39.2716H12.6466V37.0474H10.5466V41.3571H152V3.57617H137.917V5.65725Z" fill="#0B0044"/>
<path d="M105.313 0.642822L106.06 2.93091H108.486L106.524 4.34143L107.274 6.62952L105.313 5.219L103.347 6.62952L104.098 4.34143L102.136 2.93091H104.562L105.313 0.642822Z" fill="#FFB217"/>
<path d="M96.7936 0.642822L97.5447 2.93091H99.9702L98.0047 4.34143L98.7547 6.62952L96.7936 5.219L94.8315 6.62952L95.5781 4.34143L93.616 2.93091H96.0425L96.7936 0.642822Z" fill="#FFB217"/>
<path d="M114.046 0.642822L114.797 2.93091H117.223L115.261 4.34143L116.012 6.62952L114.046 5.219L112.085 6.62952L112.835 4.34143L110.869 2.93091H113.299L114.046 0.642822Z" fill="#FFB217"/>
<path d="M122.782 0.642822L123.533 2.93091H125.96L123.998 4.34143L124.744 6.62952L122.782 5.219L120.821 6.62952L121.568 4.34143L119.606 2.93091H122.032L122.782 0.642822Z" fill="#FFB217"/>
<path d="M131.519 0.642822L132.266 2.93091H134.696L132.73 4.34143L133.48 6.62952L131.519 5.219L129.553 6.62952L130.304 4.34143L128.342 2.93091H130.768L131.519 0.642822Z" fill="#FFB217"/>
</svg>
